<svg width="380" height="380" viewBox="0 0 380 380" fill="none" xmlns="http://www.w3.org/2000/svg">
<circle cx="190" cy="190" r="190" fill="#0C8CCD"/>
<path d="M121.623 90V224.713C121.623 234.835 122.069 241.314 122.959 244.148C123.85 246.901 125.713 249.169 128.547 250.951C131.381 252.732 135.916 253.623 142.152 253.623H145.918V258.117H59.1865V253.623H63.5595C70.6049 253.623 75.6257 252.813 78.622 251.193C81.6183 249.574 83.6429 247.347 84.6956 244.513C85.7484 241.678 86.2748 235.078 86.2748 224.713V139.318C86.2748 131.705 85.9104 126.968 85.1815 125.105C84.4527 123.162 83.076 121.542 81.0515 120.247C79.1079 118.87 76.8404 118.182 74.249 118.182C70.119 118.182 65.0981 119.477 59.1865 122.069L57 117.696L117.615 90H121.623Z" fill="white"/>
<path d="M179.916 177.622V187.772C179.916 189.751 180.033 191.002 180.267 191.524C180.519 192.028 180.951 192.432 181.563 192.738C182.193 193.044 183.335 193.197 184.991 193.197V194.196H166.392V193.197C168.084 193.197 169.227 193.044 169.821 192.738C170.432 192.414 170.855 192.001 171.089 191.497C171.341 190.993 171.467 189.751 171.467 187.772V164.017C171.467 162.037 171.341 160.796 171.089 160.292C170.855 159.77 170.432 159.356 169.821 159.05C169.209 158.744 168.066 158.591 166.392 158.591V157.592H182.346C187.601 157.592 191.371 158.528 193.656 160.4C195.942 162.271 197.084 164.611 197.084 167.418C197.084 169.794 196.346 171.827 194.871 173.519C193.395 175.21 191.362 176.362 188.77 176.974C187.025 177.406 184.073 177.622 179.916 177.622ZM179.916 159.698V175.516C180.51 175.552 180.96 175.57 181.266 175.57C183.461 175.57 185.153 174.922 186.341 173.627C187.529 172.313 188.122 170.289 188.122 167.553C188.122 164.836 187.529 162.847 186.341 161.588C185.153 160.328 183.38 159.698 181.023 159.698H179.916Z" fill="white"/>
<path d="M206.721 156.729C207.891 156.729 208.881 157.143 209.69 157.97C210.5 158.78 210.905 159.761 210.905 160.913C210.905 162.064 210.491 163.045 209.663 163.855C208.854 164.665 207.873 165.07 206.721 165.07C205.569 165.07 204.589 164.665 203.779 163.855C202.969 163.045 202.564 162.064 202.564 160.913C202.564 159.761 202.969 158.78 203.779 157.97C204.589 157.143 205.569 156.729 206.721 156.729ZM210.5 168.957V188.959C210.5 190.741 210.707 191.884 211.121 192.387C211.535 192.873 212.345 193.152 213.551 193.224V194.196H199.919V193.224C201.034 193.188 201.862 192.864 202.402 192.253C202.762 191.839 202.942 190.741 202.942 188.959V174.221C202.942 172.439 202.735 171.305 202.321 170.819C201.907 170.316 201.106 170.028 199.919 169.956V168.957H210.5Z" fill="white"/>
<path d="M237.413 180.672H223.565C223.727 184.019 224.618 186.665 226.238 188.608C227.479 190.102 228.973 190.849 230.719 190.849C231.798 190.849 232.779 190.552 233.661 189.958C234.543 189.346 235.488 188.257 236.495 186.692L237.413 187.286C236.045 190.075 234.534 192.055 232.878 193.224C231.222 194.376 229.306 194.952 227.128 194.952C223.385 194.952 220.551 193.512 218.625 190.633C217.078 188.311 216.304 185.432 216.304 181.995C216.304 177.784 217.438 174.437 219.705 171.953C221.991 169.452 224.663 168.201 227.722 168.201C230.278 168.201 232.491 169.254 234.363 171.359C236.252 173.447 237.269 176.551 237.413 180.672ZM230.773 178.864C230.773 175.966 230.611 173.978 230.287 172.898C229.981 171.818 229.495 170.999 228.829 170.442C228.451 170.118 227.947 169.956 227.317 169.956C226.382 169.956 225.617 170.415 225.023 171.332C223.961 172.934 223.43 175.129 223.43 177.919V178.864H230.773Z" fill="white"/>
<path d="M261.195 187.691L262.031 188.338C260.844 190.57 259.359 192.235 257.577 193.332C255.814 194.412 253.933 194.952 251.936 194.952C248.571 194.952 245.88 193.683 243.865 191.146C241.849 188.608 240.841 185.558 240.841 181.995C240.841 178.558 241.759 175.534 243.595 172.925C245.808 169.776 248.858 168.201 252.746 168.201C255.355 168.201 257.424 168.858 258.954 170.172C260.502 171.485 261.276 172.952 261.276 174.572C261.276 175.597 260.961 176.416 260.331 177.028C259.719 177.64 258.909 177.946 257.901 177.946C256.84 177.946 255.958 177.595 255.256 176.893C254.572 176.191 254.149 174.94 253.987 173.141C253.879 172.007 253.618 171.215 253.204 170.765C252.791 170.316 252.305 170.091 251.747 170.091C250.883 170.091 250.145 170.549 249.533 171.467C248.598 172.853 248.13 174.976 248.13 177.838C248.13 180.213 248.508 182.49 249.263 184.667C250.019 186.827 251.054 188.437 252.368 189.499C253.357 190.273 254.527 190.66 255.877 190.66C256.759 190.66 257.595 190.453 258.387 190.039C259.179 189.625 260.115 188.842 261.195 187.691Z" fill="white"/>
<path d="M286.542 180.672H272.694C272.856 184.019 273.747 186.665 275.366 188.608C276.608 190.102 278.102 190.849 279.847 190.849C280.927 190.849 281.908 190.552 282.79 189.958C283.671 189.346 284.616 188.257 285.624 186.692L286.542 187.286C285.174 190.075 283.662 192.055 282.007 193.224C280.351 194.376 278.435 194.952 276.257 194.952C272.514 194.952 269.68 193.512 267.754 190.633C266.206 188.311 265.433 185.432 265.433 181.995C265.433 177.784 266.566 174.437 268.834 171.953C271.119 169.452 273.792 168.201 276.851 168.201C279.406 168.201 281.62 169.254 283.491 171.359C285.381 173.447 286.398 176.551 286.542 180.672ZM279.901 178.864C279.901 175.966 279.739 173.978 279.415 172.898C279.109 171.818 278.624 170.999 277.958 170.442C277.58 170.118 277.076 169.956 276.446 169.956C275.51 169.956 274.745 170.415 274.152 171.332C273.09 172.934 272.559 175.129 272.559 177.919V178.864H279.901Z" fill="white"/>
<path d="M165.718 258.117V257.119H166.932C167.994 257.119 168.804 256.957 169.362 256.633C169.938 256.291 170.36 255.832 170.63 255.256C170.792 254.878 170.873 253.744 170.873 251.855V227.776C170.873 225.905 170.774 224.735 170.576 224.267C170.378 223.799 169.974 223.394 169.362 223.052C168.768 222.693 167.958 222.513 166.932 222.513H165.718V221.514H182.103C186.476 221.514 189.994 222.108 192.657 223.295C195.915 224.753 198.38 226.958 200.054 229.909C201.745 232.86 202.591 236.198 202.591 239.924C202.591 242.497 202.177 244.872 201.349 247.05C200.522 249.209 199.451 251 198.137 252.422C196.823 253.825 195.303 254.959 193.575 255.823C191.866 256.669 189.769 257.326 187.286 257.793C186.188 258.009 184.46 258.117 182.103 258.117H165.718ZM179.673 223.592V252.152C179.673 253.663 179.745 254.59 179.889 254.932C180.033 255.274 180.276 255.535 180.618 255.715C181.104 255.985 181.806 256.12 182.724 256.12C185.729 256.12 188.023 255.094 189.607 253.043C191.767 250.271 192.846 245.97 192.846 240.14C192.846 235.443 192.108 231.69 190.633 228.883C189.463 226.688 187.96 225.194 186.125 224.402C184.829 223.844 182.679 223.574 179.673 223.592Z" fill="white"/>
<path d="M228.181 244.593H214.333C214.495 247.941 215.386 250.586 217.006 252.53C218.247 254.023 219.741 254.77 221.487 254.77C222.566 254.77 223.547 254.473 224.429 253.879C225.311 253.268 226.256 252.179 227.263 250.613L228.181 251.207C226.814 253.996 225.302 255.976 223.646 257.146C221.991 258.297 220.074 258.873 217.897 258.873C214.153 258.873 211.319 257.434 209.394 254.554C207.846 252.233 207.072 249.353 207.072 245.916C207.072 241.705 208.206 238.358 210.473 235.875C212.759 233.373 215.431 232.122 218.49 232.122C221.046 232.122 223.259 233.175 225.131 235.281C227.02 237.368 228.037 240.472 228.181 244.593ZM221.541 242.785C221.541 239.888 221.379 237.899 221.055 236.819C220.749 235.74 220.263 234.921 219.597 234.363C219.219 234.039 218.715 233.877 218.086 233.877C217.15 233.877 216.385 234.336 215.791 235.254C214.729 236.855 214.198 239.051 214.198 241.84V242.785H221.541Z" fill="white"/>
<path d="M247.32 232.176L247.725 240.787H246.807C245.709 238.232 244.566 236.486 243.379 235.551C242.209 234.615 241.039 234.147 239.869 234.147C239.132 234.147 238.502 234.399 237.98 234.903C237.458 235.389 237.197 235.955 237.197 236.603C237.197 237.089 237.377 237.557 237.737 238.007C238.313 238.745 239.923 240.014 242.569 241.813C245.214 243.595 246.951 245.115 247.779 246.375C248.624 247.617 249.047 249.011 249.047 250.559C249.047 251.963 248.696 253.339 247.995 254.689C247.293 256.039 246.303 257.074 245.025 257.793C243.748 258.513 242.335 258.873 240.787 258.873C239.582 258.873 237.971 258.495 235.955 257.739C235.416 257.542 235.047 257.443 234.849 257.443C234.255 257.443 233.76 257.892 233.364 258.792H232.473L232.041 249.722H232.959C233.769 252.098 234.876 253.879 236.279 255.067C237.701 256.255 239.042 256.849 240.301 256.849C241.165 256.849 241.867 256.588 242.407 256.066C242.965 255.526 243.244 254.878 243.244 254.122C243.244 253.259 242.974 252.512 242.434 251.882C241.894 251.252 240.688 250.298 238.817 249.02C236.063 247.113 234.282 245.655 233.472 244.647C232.284 243.172 231.69 241.543 231.69 239.762C231.69 237.818 232.356 236.063 233.688 234.498C235.038 232.914 236.981 232.122 239.519 232.122C240.886 232.122 242.209 232.455 243.487 233.121C243.973 233.391 244.368 233.526 244.674 233.526C244.998 233.526 245.259 233.463 245.457 233.337C245.655 233.193 245.97 232.806 246.402 232.176H247.32Z" fill="white"/>
<path d="M258.981 220.65C260.151 220.65 261.141 221.064 261.95 221.892C262.76 222.702 263.165 223.682 263.165 224.834C263.165 225.986 262.751 226.967 261.923 227.776C261.114 228.586 260.133 228.991 258.981 228.991C257.829 228.991 256.849 228.586 256.039 227.776C255.229 226.967 254.824 225.986 254.824 224.834C254.824 223.682 255.229 222.702 256.039 221.892C256.849 221.064 257.829 220.65 258.981 220.65ZM262.76 232.878V252.881C262.76 254.662 262.967 255.805 263.381 256.309C263.795 256.795 264.605 257.074 265.811 257.146V258.117H252.179V257.146C253.294 257.11 254.122 256.786 254.662 256.174C255.022 255.76 255.202 254.662 255.202 252.881V238.142C255.202 236.36 254.995 235.227 254.581 234.741C254.167 234.237 253.366 233.949 252.179 233.877V232.878H262.76Z" fill="white"/>
<path d="M284.49 233.175H292.993V236.144H288.161C289.043 237.026 289.655 237.827 289.997 238.547C290.429 239.519 290.645 240.535 290.645 241.597C290.645 243.397 290.141 244.962 289.133 246.294C288.143 247.608 286.785 248.643 285.057 249.398C283.348 250.136 281.827 250.505 280.495 250.505C280.387 250.505 279.307 250.46 277.256 250.37C276.446 250.37 275.762 250.64 275.204 251.18C274.665 251.702 274.395 252.332 274.395 253.07C274.395 253.717 274.638 254.248 275.123 254.662C275.627 255.076 276.437 255.283 277.553 255.283L282.223 255.229C286.002 255.229 288.602 255.643 290.024 256.471C292.058 257.623 293.074 259.395 293.074 261.789C293.074 263.318 292.606 264.704 291.671 265.946C290.735 267.205 289.502 268.132 287.972 268.726C285.651 269.608 282.979 270.049 279.955 270.049C277.688 270.049 275.618 269.824 273.747 269.374C271.875 268.942 270.534 268.33 269.725 267.538C268.915 266.764 268.51 265.946 268.51 265.082C268.51 264.254 268.816 263.507 269.428 262.841C270.058 262.193 271.218 261.645 272.91 261.195C270.57 260.043 269.401 258.441 269.401 256.39C269.401 255.148 269.878 253.942 270.831 252.773C271.785 251.603 273.297 250.586 275.366 249.722C272.955 248.841 271.209 247.68 270.13 246.24C269.05 244.8 268.51 243.136 268.51 241.246C268.51 238.781 269.518 236.648 271.533 234.849C273.549 233.031 276.14 232.122 279.307 232.122C280.981 232.122 282.709 232.473 284.49 233.175ZM279.82 233.796C278.777 233.796 277.895 234.327 277.175 235.389C276.455 236.432 276.095 238.61 276.095 241.921C276.095 244.602 276.446 246.447 277.148 247.455C277.868 248.445 278.714 248.939 279.685 248.939C280.765 248.939 281.665 248.445 282.385 247.455C283.105 246.465 283.464 244.54 283.464 241.678C283.464 238.457 283.06 236.261 282.25 235.092C281.674 234.228 280.864 233.796 279.82 233.796ZM278.228 261.843C276.392 261.843 275.177 261.996 274.584 262.301C273.558 262.859 273.045 263.615 273.045 264.569C273.045 265.487 273.576 266.315 274.638 267.052C275.699 267.808 277.697 268.186 280.63 268.186C283.132 268.186 285.093 267.853 286.515 267.187C287.954 266.521 288.674 265.586 288.674 264.38C288.674 263.93 288.539 263.552 288.269 263.246C287.783 262.706 287.046 262.337 286.056 262.139C285.084 261.942 282.475 261.843 278.228 261.843Z" fill="white"/>
<path d="M306.247 232.878V236.144C307.543 234.741 308.785 233.724 309.972 233.094C311.16 232.446 312.438 232.122 313.806 232.122C315.443 232.122 316.802 232.581 317.882 233.499C318.961 234.399 319.681 235.524 320.041 236.873C320.329 237.899 320.473 239.87 320.473 242.785V252.611C320.473 254.554 320.644 255.769 320.986 256.255C321.346 256.723 322.084 257.02 323.199 257.146V258.117H310.431V257.146C311.385 257.02 312.069 256.624 312.483 255.958C312.771 255.508 312.915 254.392 312.915 252.611V241.381C312.915 239.312 312.834 238.007 312.672 237.467C312.51 236.927 312.231 236.513 311.835 236.225C311.457 235.919 311.034 235.767 310.566 235.767C309.019 235.767 307.579 236.873 306.247 239.087V252.611C306.247 254.5 306.418 255.697 306.76 256.201C307.12 256.705 307.777 257.02 308.731 257.146V258.117H295.963V257.146C297.024 257.038 297.78 256.696 298.23 256.12C298.536 255.724 298.689 254.554 298.689 252.611V238.358C298.689 236.45 298.509 235.263 298.149 234.795C297.807 234.327 297.078 234.021 295.963 233.877V232.878H306.247Z" fill="white"/>
</svg>
