<svg xmlns="http://www.w3.org/2000/svg" viewBox="0 0 129.09 51.19"><defs><style>.cls-1{fill:#ec136f;stroke:#ec136f;stroke-width:2.58px;}.cls-1,.cls-2{stroke-miterlimit:10;}.cls-2{fill:#7f3f97;stroke:#7f3f97;stroke-width:0.56px;}</style></defs><title>5Asset 1</title><g id="Layer_2" data-name="Layer 2"><g id="Front_side_type_option_5" data-name="Front side type option 5"><path class="cls-1" d="M5.84,1.29c3.36.57,5.26,3.18,6.35,6.44A10.24,10.24,0,0,1,18.3,5.46c4.92,0,6.87,4.17,7.29,5.78,2.13-2.61,5-4.93,8.1-4.93a5.91,5.91,0,0,1,4.41,1.8C40.47,10.58,41,14.46,41,17.92c0,6.3-1.85,13.36-4.36,17a1.09,1.09,0,0,1-.9.43,1,1,0,0,1-1-1,1.38,1.38,0,0,1,.14-.62c2.28-3.22,4-9.9,4-15.77,0-4.26-1.09-9.66-5.3-9.66-3.36,0-6.54,4.4-7.25,5.4a22.07,22.07,0,0,1,.76,6.15c0,7.54-2.23,15.78-6.49,15.78a3.07,3.07,0,0,1-1.94-.71c-.76-.81-1.14-2.13-1.14-4.17,0-4.83,2.7-12.36,6.54-17.48A8.86,8.86,0,0,0,22,9.06a5.29,5.29,0,0,0-3.83-1.61A8,8,0,0,0,12.76,10a40.37,40.37,0,0,1,.75,8.39c0,9-3,17.43-7.91,17.43-2.41,0-4.31-2-4.31-6.16C1.29,23.84,5,14.13,10.43,9.3c-.94-3.56-2.6-5.5-5-6a1.07,1.07,0,0,1-.9-1,1.06,1.06,0,0,1,1.09-1ZM11,11.43c-4.32,5-7.58,12.93-7.58,18.19,0,.61,0,4.22,2.27,4.22,3.08,0,5.73-7.35,5.73-15.49A59.77,59.77,0,0,0,11,11.43Zm13.73,4.31c-3,5.12-5.07,11.08-5.07,15,0,.66.1,3,1.05,3,2,0,4.21-5.87,4.31-13.4A28.9,28.9,0,0,0,24.69,15.74Z"/><path class="cls-1" d="M47.81,20.38a48,48,0,0,0-1,8.43c0,1.38.19,4.41,1.8,4.41,2.89,0,6.44-7.39,6.39-13.12a1.06,1.06,0,0,1,1.09-1,1,1,0,0,1,1,1c0,2.13-.33,6.77-.47,9a46.47,46.47,0,0,1-1.71,9.94,5.12,5.12,0,0,1,2.75,4.27,1.05,1.05,0,0,1-1,1,1,1,0,0,1-1-1,2.51,2.51,0,0,0-1.47-2.23c-2.08,5.35-6.72,8.76-10.94,8.76-2.32,0-4.4-1.13-4.4-4,0-4.88,6.11-8,11.08-8a9.77,9.77,0,0,1,3,.43,50.31,50.31,0,0,0,1.75-9.1c-1.18,3.32-3.69,6.06-6,6.06-2.94,0-3.93-3.17-3.93-6.49a48.86,48.86,0,0,1,1-8.62c.09-.33.24-1.09,1.14-1.09a1.07,1.07,0,0,1,1,1.09Zm4.45,19.76a10,10,0,0,0-2.46-.29c-3.93,0-8.95,2.51-8.95,5.88A2.3,2.3,0,0,0,43.4,48C46.67,48,50.42,44.87,52.26,40.14Z"/><path class="cls-1" d="M86.89,13.56c0,5.5-5.21,8.48-8.48,8.48a1,1,0,0,1-1-1.09,1,1,0,0,1,1-.95c2.7-.14,6.44-2.51,6.44-6.44,0-3.69-2.89-6.3-6.87-6.3a11.28,11.28,0,0,0-5.78,1.52C74.1,12.42,74.9,17.3,74.9,22c0,8.67-2.7,13.64-6.77,13.64-3.51,0-5.88-3.17-5.88-10,0-6,2.18-13.17,7.16-17.43a7.28,7.28,0,0,0-5.64-2.94,1,1,0,0,1-1-.95,1.09,1.09,0,0,1,1-1A9,9,0,0,1,71,7.07a13.9,13.9,0,0,1,7-1.8C83.24,5.27,86.89,8.82,86.89,13.56ZM70.4,10c-4.4,4-6.06,10.94-6.06,15.68,0,4.12,1.18,8.2,3.83,8.2,2.47,0,4.5-4.41,4.6-11.37C72.82,18,72.15,13.28,70.4,10Z"/><path class="cls-1" d="M97.84,23.75a33.23,33.23,0,0,1-.62,5.68,31.47,31.47,0,0,0-.47,3.79,2.21,2.21,0,0,0,.09.62,1.07,1.07,0,0,1,.19.56,1.09,1.09,0,0,1-1.09,1c-1,0-1.32-1.33-1.32-2.28a36.61,36.61,0,0,1,.52-4,35,35,0,0,0,.61-5.26c0-2.27-1.23-3.13-2.46-3.13-3.6,0-6.3,5.5-6.3,9.81,0,1.75.81,3,2,3s2.22-1.13,2.7-2.41a1,1,0,0,1,.9-.62,1,1,0,0,1,1,1,5.09,5.09,0,0,1-4.92,4c-1.9,0-3.84-1.42-3.84-5,0-4.93,3.41-11.8,8.62-11.8C96.18,18.72,97.84,20.48,97.84,23.75Z"/><path class="cls-1" d="M112.81,21.33a1,1,0,0,1-1,1,1.15,1.15,0,0,1-.9-.52,1.9,1.9,0,0,0-1.66-.9c-3.69,0-5.68,5-5.68,8.48,0,3.79,2.13,4.26,3.17,4.26a4.51,4.51,0,0,0,3.89-2.37,1,1,0,0,1,.9-.61c.57,0,.9.47.9,1.09,0,.9-2.23,3.79-5.83,3.79-2.93,0-5.16-1.9-5.16-6.16,0-5.16,3.27-10.52,8-10.52,1.94,0,2.89.81,3.27,1.76A1.74,1.74,0,0,1,112.81,21.33Z"/><path class="cls-1" d="M120,20.43a.51.51,0,0,1,0,.24,93.27,93.27,0,0,0-2,14.07,1.05,1.05,0,0,1-1,1,1.07,1.07,0,0,1-1.09-1.09,97.57,97.57,0,0,1,2.14-14.49,1,1,0,0,1,1.28-.76A1.11,1.11,0,0,1,120,20.43Zm2.18-7.2-1.9,1.33,2.89,1.84-3.5-.57-1.33,2.61,0-2.75L116,15.5l2.32-1.32L118.07,12l1.42,1.56Z"/><path class="cls-2" d="M6,1.52c3.36.57,5.26,3.17,6.35,6.44a10.24,10.24,0,0,1,6.11-2.27c4.92,0,6.87,4.17,7.29,5.78,2.13-2.61,5-4.93,8.1-4.93a5.91,5.91,0,0,1,4.41,1.8c2.37,2.46,2.93,6.35,2.93,9.81,0,6.3-1.84,13.35-4.35,17a1.09,1.09,0,0,1-.9.43,1,1,0,0,1-1-1,1.38,1.38,0,0,1,.14-.62c2.28-3.22,4-9.9,4-15.77,0-4.27-1.09-9.67-5.3-9.67-3.37,0-6.54,4.41-7.25,5.4A22.15,22.15,0,0,1,27.24,20c0,7.53-2.23,15.77-6.49,15.77a3,3,0,0,1-1.94-.71c-.76-.8-1.14-2.13-1.14-4.16,0-4.84,2.7-12.37,6.54-17.48a8.86,8.86,0,0,0-2.09-4.17,5.25,5.25,0,0,0-3.84-1.61,8,8,0,0,0-5.4,2.51,39.53,39.53,0,0,1,.76,8.38c0,9-3,17.43-7.91,17.43-2.41,0-4.31-2-4.31-6.15,0-5.78,3.74-15.49,9.14-20.33C9.62,6,8,4,5.54,3.56a1.08,1.08,0,0,1-.9-1,1.06,1.06,0,0,1,1.09-1Zm5.11,10.14c-4.31,5-7.57,12.93-7.57,18.19,0,.61,0,4.21,2.27,4.21,3.08,0,5.73-7.34,5.73-15.49A57.27,57.27,0,0,0,11.08,11.66ZM24.82,16c-3,5.11-5.07,11.08-5.07,15,0,.66.1,3,1.05,3,2,0,4.21-5.87,4.31-13.41A28.85,28.85,0,0,0,24.82,16Z"/><path class="cls-2" d="M47.94,20.61a48,48,0,0,0-1,8.43c0,1.37.19,4.41,1.8,4.41,2.89,0,6.44-7.39,6.39-13.12a1.06,1.06,0,0,1,1.09-1,1,1,0,0,1,1,1c0,2.13-.33,6.78-.47,9a46.54,46.54,0,0,1-1.71,10,5.1,5.1,0,0,1,2.75,4.26,1.06,1.06,0,0,1-1,1.05,1,1,0,0,1-1-1.05,2.51,2.51,0,0,0-1.47-2.22c-2.08,5.35-6.72,8.76-10.94,8.76-2.32,0-4.41-1.14-4.41-4,0-4.87,6.11-8,11.09-8a10.09,10.09,0,0,1,3,.42,50.19,50.19,0,0,0,1.75-9.09c-1.18,3.31-3.69,6.06-6,6.06-2.94,0-3.93-3.17-3.93-6.49a48.61,48.61,0,0,1,1-8.62c.09-.33.23-1.09,1.13-1.09A1.07,1.07,0,0,1,48,20.42Zm4.45,19.75a10,10,0,0,0-2.46-.28c-3.93,0-9,2.51-9,5.87a2.3,2.3,0,0,0,2.55,2.23C46.8,48.18,50.54,45.1,52.39,40.36Z"/><path class="cls-2" d="M87,13.52C87,19,81.81,22,78.54,22a1,1,0,0,1-1-1.09,1,1,0,0,1,1-.95c2.7-.14,6.45-2.51,6.45-6.44,0-3.7-2.89-6.3-6.87-6.3a11.35,11.35,0,0,0-5.78,1.51C74.23,12.38,75,17.26,75,22c0,8.67-2.71,13.64-6.78,13.64-3.5,0-5.87-3.17-5.87-10,0-6,2.18-13.17,7.15-17.43A7.26,7.26,0,0,0,63.9,5.23a1,1,0,0,1-1-1,1.08,1.08,0,0,1,1-1A9,9,0,0,1,71.1,7a13.84,13.84,0,0,1,7-1.8C83.37,5.23,87,8.78,87,13.52ZM70.53,9.92c-4.4,4-6.06,10.94-6.06,15.68,0,4.12,1.19,8.19,3.84,8.19,2.46,0,4.5-4.4,4.59-11.37C73,18,72.29,13.23,70.53,9.92Z"/><path class="cls-2" d="M98,23.7a33.33,33.33,0,0,1-.61,5.69,31.65,31.65,0,0,0-.48,3.79,1.74,1.74,0,0,0,.1.61,1.21,1.21,0,0,1,.19.57,1.09,1.09,0,0,1-1.09,1c-1,0-1.33-1.33-1.33-2.28a39.26,39.26,0,0,1,.52-4,33.88,33.88,0,0,0,.62-5.26c0-2.28-1.23-3.13-2.46-3.13-3.61,0-6.31,5.5-6.31,9.81,0,1.75.81,3,2,3s2.23-1.14,2.7-2.41a1,1,0,0,1,.9-.62,1,1,0,0,1,1,1,5.1,5.1,0,0,1-4.93,4c-1.89,0-3.84-1.42-3.84-5,0-4.93,3.41-11.8,8.62-11.8C96.31,18.68,98,20.43,98,23.7Z"/><path class="cls-2" d="M112.94,21.29a1,1,0,0,1-1,1,1.13,1.13,0,0,1-.9-.52,1.91,1.91,0,0,0-1.66-.9c-3.7,0-5.69,5-5.69,8.48,0,3.79,2.14,4.26,3.18,4.26a4.49,4.49,0,0,0,3.88-2.37,1.06,1.06,0,0,1,.9-.61c.57,0,.9.47.9,1.09,0,.9-2.22,3.79-5.82,3.79-2.94,0-5.17-1.9-5.17-6.16,0-5.17,3.27-10.52,8-10.52,1.94,0,2.89.81,3.27,1.75A1.79,1.79,0,0,1,112.94,21.29Z"/><path class="cls-2" d="M120.09,20.39a.58.58,0,0,1,0,.23,92.31,92.31,0,0,0-2,14.07,1,1,0,0,1-1,1,1.07,1.07,0,0,1-1.09-1.09A98.73,98.73,0,0,1,118,20.1a1,1,0,0,1,1.28-.75A1.1,1.1,0,0,1,120.09,20.39Zm2.18-7.2-1.89,1.32,2.89,1.85-3.51-.57-1.32,2.61,0-2.75-2.36-.19,2.32-1.33L118.2,12l1.42,1.56Z"/></g></g></svg>