<svg xmlns="http://www.w3.org/2000/svg" viewBox="0 0 65.82 14.21"><defs><style>.cls-1{fill:#0c8ccd;}</style></defs><title>5Asset 3</title><g id="Layer_2" data-name="Layer 2"><g id="Layer_1-2" data-name="Layer 1"><path class="cls-1" d="M3,6a3.07,3.07,0,0,1-1.19-.22,2.86,2.86,0,0,1-.93-.62,2.79,2.79,0,0,1-.62-1A3.06,3.06,0,0,1,0,3,3.07,3.07,0,0,1,.22,1.79,2.79,2.79,0,0,1,.84.84,2.86,2.86,0,0,1,1.77.22,3.07,3.07,0,0,1,3,0,3.07,3.07,0,0,1,4.15.22a2.86,2.86,0,0,1,.93.62,2.79,2.79,0,0,1,.62,1A3.07,3.07,0,0,1,5.92,3,3.06,3.06,0,0,1,5.7,4.16a2.79,2.79,0,0,1-.62,1,2.86,2.86,0,0,1-.93.62A3.07,3.07,0,0,1,3,6Zm0-.62a2.12,2.12,0,0,0,.91-.19,2.23,2.23,0,0,0,.71-.5A2.36,2.36,0,0,0,5,3.89,2.49,2.49,0,0,0,5.2,3,2.54,2.54,0,0,0,5,2.06a2.48,2.48,0,0,0-.46-.75,2.23,2.23,0,0,0-.71-.5,2.27,2.27,0,0,0-1.82,0,2.23,2.23,0,0,0-.71.5,2.48,2.48,0,0,0-.46.75A2.54,2.54,0,0,0,.72,3a2.49,2.49,0,0,0,.16.91,2.36,2.36,0,0,0,.46.75,2.23,2.23,0,0,0,.71.5A2.12,2.12,0,0,0,3,5.33Z"/><path class="cls-1" d="M7.4.14H8.85a7.34,7.34,0,0,1,.81,0,2,2,0,0,1,.72.21,1.24,1.24,0,0,1,.52.47,1.44,1.44,0,0,1,.2.83,1.37,1.37,0,0,1-.37,1,1.78,1.78,0,0,1-1,.49L11.3,5.81h-.83L8.94,3.26H8.07V5.81H7.4Zm.67,2.5h.6l.58,0a1.86,1.86,0,0,0,.55-.1.94.94,0,0,0,.42-.28.77.77,0,0,0,.16-.54.85.85,0,0,0-.12-.48A.78.78,0,0,0,10,.93,1.5,1.5,0,0,0,9.51.8,4,4,0,0,0,9,.77H8.07Z"/><path class="cls-1" d="M14.53.14h.63l2.41,5.67h-.79l-.57-1.39H13.38l-.59,1.39H12Zm.3.87h0L13.64,3.79H16Z"/><path class="cls-1" d="M18.72.14h.67v5H22v.63H18.72Z"/><path class="cls-1" d="M23.12.14h.67V5.81h-.67Z"/><path class="cls-1" d="M30.42,5.42a3.61,3.61,0,0,1-1,.4A4.51,4.51,0,0,1,28.3,6a3.4,3.4,0,0,1-1.22-.21,3,3,0,0,1-1-.61,2.61,2.61,0,0,1-.62-.94A3.18,3.18,0,0,1,25.27,3a3,3,0,0,1,.24-1.22,2.73,2.73,0,0,1,.65-.94,2.93,2.93,0,0,1,1-.6A3.11,3.11,0,0,1,28.32,0,3.59,3.59,0,0,1,29.4.17a2.29,2.29,0,0,1,.92.57l-.5.53a2,2,0,0,0-.7-.48,2.3,2.3,0,0,0-.85-.17,2.23,2.23,0,0,0-.9.18,2.29,2.29,0,0,0-.73.49,2.36,2.36,0,0,0-.48.74A2.63,2.63,0,0,0,26,3a2.6,2.6,0,0,0,.17.93,2.41,2.41,0,0,0,.48.75,2.33,2.33,0,0,0,.74.49,2.49,2.49,0,0,0,1,.18,3.22,3.22,0,0,0,.72-.09A2.38,2.38,0,0,0,29.74,5V3.26h-1.3V2.64h2Z"/><path class="cls-1" d="M32.22.14h.85l3.28,4.71h0V.14H37V5.81h-.85L32.91,1.1h0V5.81h-.68Z"/><path class="cls-1" d="M41.47.14H43.2a3.25,3.25,0,0,1,.69.08,1.74,1.74,0,0,1,.6.23,1.36,1.36,0,0,1,.43.43,1.31,1.31,0,0,1,.16.66,1.25,1.25,0,0,1-.27.82,1.5,1.5,0,0,1-.72.46h0a1.61,1.61,0,0,1,.5.14,1.4,1.4,0,0,1,.41.3,1.3,1.3,0,0,1,.27.43,1.5,1.5,0,0,1,.1.52,1.41,1.41,0,0,1-.2.78,1.47,1.47,0,0,1-.51.48,2.31,2.31,0,0,1-.71.26,5.39,5.39,0,0,1-.79.07H41.47Zm.67,2.4h.93a3.59,3.59,0,0,0,.47,0A1.1,1.1,0,0,0,44,2.38a.89.89,0,0,0,.3-.28,1,1,0,0,0,.11-.48.77.77,0,0,0-.11-.42A.68.68,0,0,0,44,.94,1.3,1.3,0,0,0,43.59.8l-.45,0h-1Zm0,2.64h1.14a2,2,0,0,0,.49,0A1.3,1.3,0,0,0,44.21,5a.84.84,0,0,0,.32-.3.85.85,0,0,0,.12-.46,1,1,0,0,0-.12-.5,1,1,0,0,0-.3-.32,1.21,1.21,0,0,0-.44-.16,2.07,2.07,0,0,0-.5-.05H42.14Z"/><path class="cls-1" d="M48.75.14h.63l2.41,5.67H51l-.58-1.39H47.6L47,5.81h-.76Zm.3.87h0L47.86,3.79h2.31Z"/><path class="cls-1" d="M52.94.14h1.73a3.17,3.17,0,0,1,.69.08,1.74,1.74,0,0,1,.6.23,1.36,1.36,0,0,1,.43.43,1.22,1.22,0,0,1,.16.66,1.25,1.25,0,0,1-.27.82,1.5,1.5,0,0,1-.72.46h0a1.75,1.75,0,0,1,.51.14,1.5,1.5,0,0,1,.4.3,1.41,1.41,0,0,1,.37.95,1.41,1.41,0,0,1-.2.78,1.47,1.47,0,0,1-.51.48,2.31,2.31,0,0,1-.71.26,5.39,5.39,0,0,1-.79.07H52.94Zm.67,2.4h.93a3.59,3.59,0,0,0,.47,0,1.1,1.1,0,0,0,.41-.13.89.89,0,0,0,.3-.28,1,1,0,0,0,.11-.48.77.77,0,0,0-.1-.42.77.77,0,0,0-.28-.26A1.13,1.13,0,0,0,55.06.8l-.45,0h-1Zm0,2.64h1.14a2,2,0,0,0,.49,0A1.23,1.23,0,0,0,55.68,5a.84.84,0,0,0,.32-.3.85.85,0,0,0,.12-.46A1,1,0,0,0,56,3.7a1,1,0,0,0-.3-.32,1.23,1.23,0,0,0-.43-.16,2.12,2.12,0,0,0-.5-.05H53.61Z"/><path class="cls-1" d="M59.72,3.37,57.61.14h.85L60.05,2.7,61.69.14h.81L60.39,3.37V5.81h-.67Z"/><path class="cls-1" d="M64.05.35h-.5V1.7h-.18V.35h-.5V.19h1.18Z"/><path class="cls-1" d="M64.26.19h.26L65,1.37h0L65.56.19h.26V1.7h-.18V.43h0L65.09,1.7H65L64.44.43h0V1.7h-.18Z"/><path class="cls-1" d="M3.07,13.46l.49-.58a2.15,2.15,0,0,0,1.46.6c.5,0,.82-.23.82-.58h0c0-.33-.18-.51-1-.71s-1.54-.53-1.54-1.38h0A1.42,1.42,0,0,1,4.84,9.44,2.57,2.57,0,0,1,6.52,10l-.44.61a2.12,2.12,0,0,0-1.26-.48c-.47,0-.75.25-.75.55v0c0,.35.21.51,1.1.72s1.48.59,1.48,1.36h0C6.65,13.69,6,14.2,5,14.2A2.85,2.85,0,0,1,3.07,13.46Z"/><path class="cls-1" d="M7.4,11.84v0A2.37,2.37,0,0,1,9.83,9.43a2.35,2.35,0,0,1,2.41,2.38h0a2.37,2.37,0,0,1-2.43,2.39A2.34,2.34,0,0,1,7.4,11.84Zm4,0v0a1.58,1.58,0,0,0-1.58-1.64,1.56,1.56,0,0,0-1.55,1.63h0a1.58,1.58,0,0,0,1.57,1.65A1.57,1.57,0,0,0,11.39,11.84Z"/><path class="cls-1" d="M13,11.84v0a2.37,2.37,0,0,1,2.43-2.39,2.35,2.35,0,0,1,2.41,2.38h0a2.37,2.37,0,0,1-2.43,2.39A2.34,2.34,0,0,1,13,11.84Zm4,0v0a1.58,1.58,0,0,0-1.58-1.64,1.56,1.56,0,0,0-1.55,1.63h0a1.58,1.58,0,0,0,1.57,1.65A1.57,1.57,0,0,0,17,11.84Z"/><path class="cls-1" d="M19.71,10.26H18.25V9.51H22v.75H20.53v3.87h-.82Z"/><path class="cls-1" d="M22.85,9.51h.82v1.92h2.2V9.51h.81v4.62h-.81V12.19h-2.2v1.94h-.82Z"/><path class="cls-1" d="M27.87,9.51H31.3v.73H28.68v1.2H31v.73H28.68v1.24h2.65v.72H27.87Z"/><path class="cls-1" d="M34.27,9.51h2.08a1.67,1.67,0,0,1,1.2.41,1,1,0,0,1,.32.77h0a1.1,1.1,0,0,1-.67,1,1.13,1.13,0,0,1,.92,1.12v0c0,.82-.68,1.26-1.71,1.26H34.27Zm1.91,2c.52,0,.87-.21.87-.63h0c0-.37-.29-.59-.81-.59H35.07v1.23Zm.24,1.95c.55,0,.89-.21.89-.63h0c0-.39-.31-.62-1-.62H35.07v1.26Z"/><path class="cls-1" d="M39,9.51h3.43v.73H39.85v1.2h2.32v.73H39.85v1.24H42.5v.72H39Z"/><path class="cls-1" d="M44.59,10.26H43.13V9.51h3.75v.75H45.41v3.87h-.82Z"/><path class="cls-1" d="M48.87,10.26H47.4V9.51h3.76v.75H49.69v3.87h-.82Z"/><path class="cls-1" d="M52,9.51h3.43v.73H52.82v1.2h2.32v.73H52.82v1.24h2.65v.72H52Z"/><path class="cls-1" d="M56.43,9.51h2.06a1.87,1.87,0,0,1,1.34.46,1.42,1.42,0,0,1,.38,1h0a1.38,1.38,0,0,1-1.1,1.4l1.25,1.75h-1l-1.14-1.61h-1v1.61h-.82Zm2,2.29c.58,0,1-.3,1-.77h0c0-.5-.36-.77-1-.77H57.25V11.8Z"/><path class="cls-1" d="M61.68,9.68h-.5V11H61V9.68h-.5V9.51h1.18Z"/><path class="cls-1" d="M61.9,9.51h.26l.52,1.19h0l.52-1.19h.26V11h-.18V9.76h0L62.73,11h-.11l-.54-1.27h0V11H61.9Z"/></g></g></svg>